<mxfile host="app.diagrams.net" agent="Mozilla/5.0 (Linux; Android 10; K) AppleWebKit/537.36 (KHTML, like Gecko) Chrome/128.0.0.0 Mobile Safari/537.36" version="24.7.12">
  <diagram name="Página-1" id="HBrupc5gaeTVpc96e7U1">
    <mxGraphModel dx="1592" dy="2592" grid="0" gridSize="10" guides="1" tooltips="1" connect="1" arrows="1" fold="1" page="0" pageScale="1" pageWidth="827" pageHeight="1169" math="0" shadow="0">
      <root>
        <mxCell id="0" />
        <mxCell id="1" parent="0" />
        <mxCell id="1RtsjHyNnC9H89veOepJ-1" value="Copia" style="shape=ext;margin=3;double=1;whiteSpace=wrap;html=1;align=center;" vertex="1" parent="1">
          <mxGeometry x="580.54" y="463" width="100" height="39" as="geometry" />
        </mxCell>
        <mxCell id="1RtsjHyNnC9H89veOepJ-2" style="edgeStyle=none;curved=1;rounded=0;orthogonalLoop=1;jettySize=auto;html=1;entryX=0.5;entryY=1;entryDx=0;entryDy=0;fontSize=14;startSize=8;endSize=8;endArrow=none;endFill=0;" edge="1" parent="1" source="1RtsjHyNnC9H89veOepJ-5" target="1RtsjHyNnC9H89veOepJ-7">
          <mxGeometry relative="1" as="geometry" />
        </mxCell>
        <mxCell id="1RtsjHyNnC9H89veOepJ-3" style="edgeStyle=none;curved=1;rounded=0;orthogonalLoop=1;jettySize=auto;html=1;entryX=0.5;entryY=1;entryDx=0;entryDy=0;fontSize=12;startSize=8;endSize=8;endArrow=none;endFill=0;" edge="1" parent="1" source="1RtsjHyNnC9H89veOepJ-5" target="1RtsjHyNnC9H89veOepJ-8">
          <mxGeometry relative="1" as="geometry" />
        </mxCell>
        <mxCell id="1RtsjHyNnC9H89veOepJ-4" style="edgeStyle=none;curved=1;rounded=0;orthogonalLoop=1;jettySize=auto;html=1;entryX=0.5;entryY=1;entryDx=0;entryDy=0;fontSize=12;startSize=8;endSize=8;endArrow=none;endFill=0;" edge="1" parent="1" source="1RtsjHyNnC9H89veOepJ-5" target="1RtsjHyNnC9H89veOepJ-9">
          <mxGeometry relative="1" as="geometry" />
        </mxCell>
        <mxCell id="1RtsjHyNnC9H89veOepJ-5" value="Lugar" style="ellipse;whiteSpace=wrap;html=1;align=center;" vertex="1" parent="1">
          <mxGeometry x="623" y="374" width="100" height="40" as="geometry" />
        </mxCell>
        <mxCell id="1RtsjHyNnC9H89veOepJ-6" style="edgeStyle=none;curved=1;rounded=0;orthogonalLoop=1;jettySize=auto;html=1;entryX=0.5;entryY=1;entryDx=0;entryDy=0;fontSize=12;startSize=8;endSize=8;endArrow=none;endFill=0;" edge="1" parent="1" source="1RtsjHyNnC9H89veOepJ-1" target="1RtsjHyNnC9H89veOepJ-5">
          <mxGeometry relative="1" as="geometry" />
        </mxCell>
        <mxCell id="1RtsjHyNnC9H89veOepJ-7" value="CDD" style="ellipse;whiteSpace=wrap;html=1;align=center;" vertex="1" parent="1">
          <mxGeometry x="546" y="302" width="100" height="40" as="geometry" />
        </mxCell>
        <mxCell id="1RtsjHyNnC9H89veOepJ-8" value="PlantaEstante" style="ellipse;whiteSpace=wrap;html=1;align=center;" vertex="1" parent="1">
          <mxGeometry x="723" y="302" width="125" height="40" as="geometry" />
        </mxCell>
        <mxCell id="1RtsjHyNnC9H89veOepJ-9" value="PosicionEstante" style="ellipse;whiteSpace=wrap;html=1;align=center;" vertex="1" parent="1">
          <mxGeometry x="620" y="246" width="133" height="40" as="geometry" />
        </mxCell>
        <mxCell id="1RtsjHyNnC9H89veOepJ-10" style="edgeStyle=none;curved=1;rounded=0;orthogonalLoop=1;jettySize=auto;html=1;entryX=0.5;entryY=1;entryDx=0;entryDy=0;fontSize=13;startSize=8;endSize=8;endArrow=none;endFill=0;exitX=0.39;exitY=0.075;exitDx=0;exitDy=0;exitPerimeter=0;" edge="1" parent="1" source="1RtsjHyNnC9H89veOepJ-13" target="1RtsjHyNnC9H89veOepJ-14">
          <mxGeometry relative="1" as="geometry" />
        </mxCell>
        <mxCell id="1RtsjHyNnC9H89veOepJ-11" style="edgeStyle=none;curved=1;rounded=0;orthogonalLoop=1;jettySize=auto;html=1;fontSize=12;endArrow=none;endFill=0;shape=link;" edge="1" parent="1" source="1RtsjHyNnC9H89veOepJ-13" target="1RtsjHyNnC9H89veOepJ-78">
          <mxGeometry relative="1" as="geometry" />
        </mxCell>
        <mxCell id="1RtsjHyNnC9H89veOepJ-12" style="edgeStyle=none;curved=1;rounded=0;orthogonalLoop=1;jettySize=auto;html=1;entryX=0;entryY=0.5;entryDx=0;entryDy=0;fontSize=12;endArrow=none;endFill=0;shape=link;" edge="1" parent="1" source="1RtsjHyNnC9H89veOepJ-13" target="1RtsjHyNnC9H89veOepJ-84">
          <mxGeometry relative="1" as="geometry" />
        </mxCell>
        <mxCell id="1RtsjHyNnC9H89veOepJ-13" value="Libro" style="whiteSpace=wrap;html=1;align=center;" vertex="1" parent="1">
          <mxGeometry x="1204" y="463" width="100" height="40" as="geometry" />
        </mxCell>
        <mxCell id="1RtsjHyNnC9H89veOepJ-14" value="ISBN" style="ellipse;whiteSpace=wrap;html=1;align=center;fontStyle=4" vertex="1" parent="1">
          <mxGeometry x="1114" y="366" width="100" height="40" as="geometry" />
        </mxCell>
        <mxCell id="1RtsjHyNnC9H89veOepJ-15" style="edgeStyle=none;curved=1;rounded=0;orthogonalLoop=1;jettySize=auto;html=1;entryX=0.5;entryY=0;entryDx=0;entryDy=0;fontSize=12;startSize=8;endSize=8;endArrow=none;endFill=0;" edge="1" parent="1" source="1RtsjHyNnC9H89veOepJ-16" target="1RtsjHyNnC9H89veOepJ-13">
          <mxGeometry relative="1" as="geometry" />
        </mxCell>
        <mxCell id="1RtsjHyNnC9H89veOepJ-16" value="AñoPublicacion" style="ellipse;whiteSpace=wrap;html=1;align=center;fontStyle=0" vertex="1" parent="1">
          <mxGeometry x="1153" y="316" width="119" height="40" as="geometry" />
        </mxCell>
        <mxCell id="1RtsjHyNnC9H89veOepJ-17" style="edgeStyle=none;curved=1;rounded=0;orthogonalLoop=1;jettySize=auto;html=1;fontSize=12;startSize=8;endSize=8;endArrow=none;endFill=0;" edge="1" parent="1" source="1RtsjHyNnC9H89veOepJ-18" target="1RtsjHyNnC9H89veOepJ-13">
          <mxGeometry relative="1" as="geometry" />
        </mxCell>
        <mxCell id="1RtsjHyNnC9H89veOepJ-18" value="Titulo&amp;nbsp;" style="ellipse;whiteSpace=wrap;html=1;align=center;" vertex="1" parent="1">
          <mxGeometry x="1254" y="352" width="100" height="40" as="geometry" />
        </mxCell>
        <mxCell id="1RtsjHyNnC9H89veOepJ-19" style="edgeStyle=none;curved=1;rounded=0;orthogonalLoop=1;jettySize=auto;html=1;fontSize=12;startSize=8;endSize=8;entryX=0.75;entryY=0;entryDx=0;entryDy=0;endArrow=none;endFill=0;" edge="1" parent="1" source="1RtsjHyNnC9H89veOepJ-20" target="1RtsjHyNnC9H89veOepJ-13">
          <mxGeometry relative="1" as="geometry" />
        </mxCell>
        <mxCell id="1RtsjHyNnC9H89veOepJ-20" value="Autor" style="ellipse;shape=doubleEllipse;margin=3;whiteSpace=wrap;html=1;align=center;" vertex="1" parent="1">
          <mxGeometry x="1336" y="392" width="100" height="40" as="geometry" />
        </mxCell>
        <mxCell id="1RtsjHyNnC9H89veOepJ-21" style="edgeStyle=none;curved=1;rounded=0;orthogonalLoop=1;jettySize=auto;html=1;entryX=0.25;entryY=0;entryDx=0;entryDy=0;fontSize=12;startSize=8;endSize=8;endArrow=none;endFill=0;" edge="1" parent="1" source="1RtsjHyNnC9H89veOepJ-22" target="1RtsjHyNnC9H89veOepJ-13">
          <mxGeometry relative="1" as="geometry" />
        </mxCell>
        <mxCell id="1RtsjHyNnC9H89veOepJ-22" value="NumPaginas" style="ellipse;whiteSpace=wrap;html=1;align=center;" vertex="1" parent="1">
          <mxGeometry x="1049" y="408" width="100" height="40" as="geometry" />
        </mxCell>
        <mxCell id="1RtsjHyNnC9H89veOepJ-23" style="edgeStyle=none;curved=1;rounded=0;orthogonalLoop=1;jettySize=auto;html=1;entryX=0;entryY=1;entryDx=0;entryDy=0;fontSize=12;startSize=8;endSize=8;endArrow=none;endFill=0;" edge="1" parent="1" source="1RtsjHyNnC9H89veOepJ-24" target="1RtsjHyNnC9H89veOepJ-34">
          <mxGeometry relative="1" as="geometry" />
        </mxCell>
        <mxCell id="1RtsjHyNnC9H89veOepJ-24" value="Editorial" style="whiteSpace=wrap;html=1;align=center;" vertex="1" parent="1">
          <mxGeometry x="1755" y="463" width="100" height="40" as="geometry" />
        </mxCell>
        <mxCell id="1RtsjHyNnC9H89veOepJ-25" style="edgeStyle=none;curved=1;rounded=0;orthogonalLoop=1;jettySize=auto;html=1;entryX=0.25;entryY=0;entryDx=0;entryDy=0;fontSize=12;startSize=8;endSize=8;endArrow=none;endFill=0;" edge="1" parent="1" source="1RtsjHyNnC9H89veOepJ-26" target="1RtsjHyNnC9H89veOepJ-24">
          <mxGeometry relative="1" as="geometry" />
        </mxCell>
        <mxCell id="1RtsjHyNnC9H89veOepJ-26" value="IdEditorial" style="ellipse;whiteSpace=wrap;html=1;align=center;fontStyle=4" vertex="1" parent="1">
          <mxGeometry x="1665" y="384" width="100" height="40" as="geometry" />
        </mxCell>
        <mxCell id="1RtsjHyNnC9H89veOepJ-27" style="edgeStyle=none;curved=1;rounded=0;orthogonalLoop=1;jettySize=auto;html=1;fontSize=12;startSize=8;endSize=8;endArrow=none;endFill=0;" edge="1" parent="1" source="1RtsjHyNnC9H89veOepJ-28" target="1RtsjHyNnC9H89veOepJ-24">
          <mxGeometry relative="1" as="geometry" />
        </mxCell>
        <mxCell id="1RtsjHyNnC9H89veOepJ-28" value="Nombre" style="ellipse;whiteSpace=wrap;html=1;align=center;" vertex="1" parent="1">
          <mxGeometry x="1768" y="331" width="100" height="40" as="geometry" />
        </mxCell>
        <mxCell id="1RtsjHyNnC9H89veOepJ-29" style="edgeStyle=none;curved=1;rounded=0;orthogonalLoop=1;jettySize=auto;html=1;entryX=0;entryY=0.5;entryDx=0;entryDy=0;fontSize=12;startSize=8;endSize=8;endArrow=none;endFill=0;" edge="1" parent="1" source="1RtsjHyNnC9H89veOepJ-34" target="1RtsjHyNnC9H89veOepJ-35">
          <mxGeometry relative="1" as="geometry" />
        </mxCell>
        <mxCell id="1RtsjHyNnC9H89veOepJ-30" style="edgeStyle=none;curved=1;rounded=0;orthogonalLoop=1;jettySize=auto;html=1;entryX=0;entryY=0.5;entryDx=0;entryDy=0;fontSize=12;startSize=8;endSize=8;endArrow=none;endFill=0;" edge="1" parent="1" source="1RtsjHyNnC9H89veOepJ-34" target="1RtsjHyNnC9H89veOepJ-36">
          <mxGeometry relative="1" as="geometry" />
        </mxCell>
        <mxCell id="1RtsjHyNnC9H89veOepJ-31" style="edgeStyle=none;curved=1;rounded=0;orthogonalLoop=1;jettySize=auto;html=1;entryX=0;entryY=0.5;entryDx=0;entryDy=0;fontSize=12;startSize=8;endSize=8;endArrow=none;endFill=0;" edge="1" parent="1" source="1RtsjHyNnC9H89veOepJ-34" target="1RtsjHyNnC9H89veOepJ-37">
          <mxGeometry relative="1" as="geometry" />
        </mxCell>
        <mxCell id="1RtsjHyNnC9H89veOepJ-32" style="edgeStyle=none;curved=1;rounded=0;orthogonalLoop=1;jettySize=auto;html=1;entryX=0;entryY=0.5;entryDx=0;entryDy=0;fontSize=12;startSize=8;endSize=8;endArrow=none;endFill=0;" edge="1" parent="1" source="1RtsjHyNnC9H89veOepJ-34" target="1RtsjHyNnC9H89veOepJ-38">
          <mxGeometry relative="1" as="geometry" />
        </mxCell>
        <mxCell id="1RtsjHyNnC9H89veOepJ-33" style="edgeStyle=none;curved=1;rounded=0;orthogonalLoop=1;jettySize=auto;html=1;entryX=0;entryY=0.5;entryDx=0;entryDy=0;fontSize=12;startSize=8;endSize=8;endArrow=none;endFill=0;" edge="1" parent="1" source="1RtsjHyNnC9H89veOepJ-34" target="1RtsjHyNnC9H89veOepJ-39">
          <mxGeometry relative="1" as="geometry" />
        </mxCell>
        <mxCell id="1RtsjHyNnC9H89veOepJ-34" value="Ubicacion" style="ellipse;whiteSpace=wrap;html=1;align=center;" vertex="1" parent="1">
          <mxGeometry x="1874" y="384" width="100" height="40" as="geometry" />
        </mxCell>
        <mxCell id="1RtsjHyNnC9H89veOepJ-35" value="Estado" style="ellipse;whiteSpace=wrap;html=1;align=center;" vertex="1" parent="1">
          <mxGeometry x="2002" y="258" width="100" height="40" as="geometry" />
        </mxCell>
        <mxCell id="1RtsjHyNnC9H89veOepJ-36" value="Municipio" style="ellipse;whiteSpace=wrap;html=1;align=center;" vertex="1" parent="1">
          <mxGeometry x="2034" y="306" width="100" height="40" as="geometry" />
        </mxCell>
        <mxCell id="1RtsjHyNnC9H89veOepJ-37" value="Numero" style="ellipse;whiteSpace=wrap;html=1;align=center;" vertex="1" parent="1">
          <mxGeometry x="2044" y="356" width="100" height="40" as="geometry" />
        </mxCell>
        <mxCell id="1RtsjHyNnC9H89veOepJ-38" value="Calle" style="ellipse;whiteSpace=wrap;html=1;align=center;" vertex="1" parent="1">
          <mxGeometry x="2049" y="404" width="100" height="40" as="geometry" />
        </mxCell>
        <mxCell id="1RtsjHyNnC9H89veOepJ-39" value="CodigoPostal" style="ellipse;whiteSpace=wrap;html=1;align=center;" vertex="1" parent="1">
          <mxGeometry x="2020" y="457" width="118" height="40" as="geometry" />
        </mxCell>
        <mxCell id="1RtsjHyNnC9H89veOepJ-40" style="edgeStyle=none;curved=1;rounded=0;orthogonalLoop=1;jettySize=auto;html=1;fontSize=12;startSize=8;endSize=8;endArrow=none;endFill=0;" edge="1" parent="1" source="1RtsjHyNnC9H89veOepJ-42" target="1RtsjHyNnC9H89veOepJ-43">
          <mxGeometry relative="1" as="geometry" />
        </mxCell>
        <mxCell id="1RtsjHyNnC9H89veOepJ-41" style="edgeStyle=orthogonalEdgeStyle;rounded=0;orthogonalLoop=1;jettySize=auto;html=1;entryX=0;entryY=0.5;entryDx=0;entryDy=0;fontSize=12;endArrow=none;endFill=0;shape=link;" edge="1" parent="1" source="1RtsjHyNnC9H89veOepJ-42" target="1RtsjHyNnC9H89veOepJ-80">
          <mxGeometry relative="1" as="geometry">
            <Array as="points">
              <mxPoint x="1254" y="924" />
            </Array>
          </mxGeometry>
        </mxCell>
        <mxCell id="1RtsjHyNnC9H89veOepJ-42" value="Categoria" style="whiteSpace=wrap;html=1;align=center;" vertex="1" parent="1">
          <mxGeometry x="1204" y="805" width="100" height="40" as="geometry" />
        </mxCell>
        <mxCell id="1RtsjHyNnC9H89veOepJ-43" value="Nombre" style="ellipse;whiteSpace=wrap;html=1;align=center;fontStyle=4" vertex="1" parent="1">
          <mxGeometry x="1044" y="805" width="100" height="40" as="geometry" />
        </mxCell>
        <mxCell id="1RtsjHyNnC9H89veOepJ-44" style="edgeStyle=none;curved=1;rounded=0;orthogonalLoop=1;jettySize=auto;html=1;fontSize=12;startSize=8;endSize=8;endArrow=none;endFill=0;entryX=0.25;entryY=0;entryDx=0;entryDy=0;" edge="1" parent="1" source="1RtsjHyNnC9H89veOepJ-45" target="1RtsjHyNnC9H89veOepJ-1">
          <mxGeometry relative="1" as="geometry" />
        </mxCell>
        <mxCell id="1RtsjHyNnC9H89veOepJ-45" value="&lt;span style=&quot;border-bottom: 1px dotted&quot;&gt;NumCopia&lt;/span&gt;" style="ellipse;whiteSpace=wrap;html=1;align=center;" vertex="1" parent="1">
          <mxGeometry x="484" y="384" width="100" height="40" as="geometry" />
        </mxCell>
        <mxCell id="1RtsjHyNnC9H89veOepJ-46" style="edgeStyle=none;curved=1;rounded=0;orthogonalLoop=1;jettySize=auto;html=1;entryX=0.5;entryY=0;entryDx=0;entryDy=0;fontSize=12;startSize=8;endSize=8;endArrow=none;endFill=0;" edge="1" parent="1" source="1RtsjHyNnC9H89veOepJ-50" target="1RtsjHyNnC9H89veOepJ-54">
          <mxGeometry relative="1" as="geometry" />
        </mxCell>
        <mxCell id="1RtsjHyNnC9H89veOepJ-47" style="edgeStyle=none;curved=1;rounded=0;orthogonalLoop=1;jettySize=auto;html=1;fontSize=12;startSize=8;endSize=8;endArrow=none;endFill=0;" edge="1" parent="1" source="1RtsjHyNnC9H89veOepJ-50" target="1RtsjHyNnC9H89veOepJ-62">
          <mxGeometry relative="1" as="geometry" />
        </mxCell>
        <mxCell id="1RtsjHyNnC9H89veOepJ-48" style="edgeStyle=none;curved=1;rounded=0;orthogonalLoop=1;jettySize=auto;html=1;entryX=0.331;entryY=0;entryDx=0;entryDy=0;fontSize=12;startSize=8;endSize=8;endArrow=none;endFill=0;entryPerimeter=0;exitX=0.66;exitY=0.85;exitDx=0;exitDy=0;exitPerimeter=0;" edge="1" parent="1" source="1RtsjHyNnC9H89veOepJ-50" target="1RtsjHyNnC9H89veOepJ-67">
          <mxGeometry relative="1" as="geometry" />
        </mxCell>
        <mxCell id="1RtsjHyNnC9H89veOepJ-49" style="edgeStyle=none;curved=1;rounded=0;orthogonalLoop=1;jettySize=auto;html=1;fontSize=12;startSize=8;endSize=8;endArrow=none;endFill=0;" edge="1" parent="1" source="1RtsjHyNnC9H89veOepJ-50" target="1RtsjHyNnC9H89veOepJ-68">
          <mxGeometry relative="1" as="geometry" />
        </mxCell>
        <mxCell id="1RtsjHyNnC9H89veOepJ-50" value="Lector" style="whiteSpace=wrap;html=1;align=center;" vertex="1" parent="1">
          <mxGeometry x="584" y="805" width="100" height="40" as="geometry" />
        </mxCell>
        <mxCell id="1RtsjHyNnC9H89veOepJ-51" style="edgeStyle=none;curved=1;rounded=0;orthogonalLoop=1;jettySize=auto;html=1;entryX=0.5;entryY=0;entryDx=0;entryDy=0;fontSize=12;startSize=8;endSize=8;endArrow=none;endFill=0;" edge="1" parent="1" source="1RtsjHyNnC9H89veOepJ-54" target="1RtsjHyNnC9H89veOepJ-55">
          <mxGeometry relative="1" as="geometry" />
        </mxCell>
        <mxCell id="1RtsjHyNnC9H89veOepJ-52" style="edgeStyle=none;curved=1;rounded=0;orthogonalLoop=1;jettySize=auto;html=1;entryX=0.5;entryY=0;entryDx=0;entryDy=0;fontSize=12;startSize=8;endSize=8;endArrow=none;endFill=0;" edge="1" parent="1" source="1RtsjHyNnC9H89veOepJ-54" target="1RtsjHyNnC9H89veOepJ-56">
          <mxGeometry relative="1" as="geometry" />
        </mxCell>
        <mxCell id="1RtsjHyNnC9H89veOepJ-53" style="edgeStyle=none;curved=1;rounded=0;orthogonalLoop=1;jettySize=auto;html=1;entryX=0.5;entryY=0;entryDx=0;entryDy=0;fontSize=12;startSize=8;endSize=8;endArrow=none;endFill=0;" edge="1" parent="1" source="1RtsjHyNnC9H89veOepJ-54" target="1RtsjHyNnC9H89veOepJ-57">
          <mxGeometry relative="1" as="geometry" />
        </mxCell>
        <mxCell id="1RtsjHyNnC9H89veOepJ-54" value="NombreCompleto" style="ellipse;whiteSpace=wrap;html=1;align=center;" vertex="1" parent="1">
          <mxGeometry x="502" y="908" width="124" height="40" as="geometry" />
        </mxCell>
        <mxCell id="1RtsjHyNnC9H89veOepJ-55" value="Nombre" style="ellipse;whiteSpace=wrap;html=1;align=center;" vertex="1" parent="1">
          <mxGeometry x="422" y="969" width="100" height="40" as="geometry" />
        </mxCell>
        <mxCell id="1RtsjHyNnC9H89veOepJ-56" value="ApPaterno" style="ellipse;whiteSpace=wrap;html=1;align=center;" vertex="1" parent="1">
          <mxGeometry x="518" y="1015" width="100" height="40" as="geometry" />
        </mxCell>
        <mxCell id="1RtsjHyNnC9H89veOepJ-57" value="ApMaterno" style="ellipse;whiteSpace=wrap;html=1;align=center;" vertex="1" parent="1">
          <mxGeometry x="604" y="971" width="100" height="40" as="geometry" />
        </mxCell>
        <mxCell id="1RtsjHyNnC9H89veOepJ-58" style="edgeStyle=none;curved=1;rounded=0;orthogonalLoop=1;jettySize=auto;html=1;entryX=1;entryY=0.5;entryDx=0;entryDy=0;fontSize=12;startSize=8;endSize=8;endArrow=none;endFill=0;" edge="1" parent="1" source="1RtsjHyNnC9H89veOepJ-62" target="1RtsjHyNnC9H89veOepJ-63">
          <mxGeometry relative="1" as="geometry" />
        </mxCell>
        <mxCell id="1RtsjHyNnC9H89veOepJ-59" style="edgeStyle=none;curved=1;rounded=0;orthogonalLoop=1;jettySize=auto;html=1;fontSize=12;startSize=8;endSize=8;endArrow=none;endFill=0;" edge="1" parent="1" source="1RtsjHyNnC9H89veOepJ-62" target="1RtsjHyNnC9H89veOepJ-64">
          <mxGeometry relative="1" as="geometry" />
        </mxCell>
        <mxCell id="1RtsjHyNnC9H89veOepJ-60" style="edgeStyle=none;curved=1;rounded=0;orthogonalLoop=1;jettySize=auto;html=1;entryX=1;entryY=0.5;entryDx=0;entryDy=0;fontSize=12;startSize=8;endSize=8;endArrow=none;endFill=0;" edge="1" parent="1" source="1RtsjHyNnC9H89veOepJ-62" target="1RtsjHyNnC9H89veOepJ-65">
          <mxGeometry relative="1" as="geometry" />
        </mxCell>
        <mxCell id="1RtsjHyNnC9H89veOepJ-61" style="edgeStyle=none;curved=1;rounded=0;orthogonalLoop=1;jettySize=auto;html=1;entryX=1;entryY=0.5;entryDx=0;entryDy=0;fontSize=12;startSize=8;endSize=8;endArrow=none;endFill=0;" edge="1" parent="1" source="1RtsjHyNnC9H89veOepJ-62" target="1RtsjHyNnC9H89veOepJ-66">
          <mxGeometry relative="1" as="geometry" />
        </mxCell>
        <mxCell id="1RtsjHyNnC9H89veOepJ-62" value="Direccion" style="ellipse;whiteSpace=wrap;html=1;align=center;" vertex="1" parent="1">
          <mxGeometry x="418" y="805" width="100" height="40" as="geometry" />
        </mxCell>
        <mxCell id="1RtsjHyNnC9H89veOepJ-63" value="Municipio" style="ellipse;whiteSpace=wrap;html=1;align=center;" vertex="1" parent="1">
          <mxGeometry x="289" y="748" width="100" height="40" as="geometry" />
        </mxCell>
        <mxCell id="1RtsjHyNnC9H89veOepJ-64" value="Numero" style="ellipse;whiteSpace=wrap;html=1;align=center;" vertex="1" parent="1">
          <mxGeometry x="267" y="801" width="100" height="40" as="geometry" />
        </mxCell>
        <mxCell id="1RtsjHyNnC9H89veOepJ-65" value="Calle" style="ellipse;whiteSpace=wrap;html=1;align=center;" vertex="1" parent="1">
          <mxGeometry x="267" y="854" width="100" height="40" as="geometry" />
        </mxCell>
        <mxCell id="1RtsjHyNnC9H89veOepJ-66" value="CodigoPostal" style="ellipse;whiteSpace=wrap;html=1;align=center;" vertex="1" parent="1">
          <mxGeometry x="289" y="903" width="118" height="40" as="geometry" />
        </mxCell>
        <mxCell id="1RtsjHyNnC9H89veOepJ-67" value="FechaNacimiento" style="ellipse;whiteSpace=wrap;html=1;align=center;" vertex="1" parent="1">
          <mxGeometry x="689" y="899" width="124" height="40" as="geometry" />
        </mxCell>
        <mxCell id="1RtsjHyNnC9H89veOepJ-68" value="IdLector" style="ellipse;whiteSpace=wrap;html=1;align=center;fontStyle=4" vertex="1" parent="1">
          <mxGeometry x="769" y="805" width="100" height="40" as="geometry" />
        </mxCell>
        <mxCell id="1RtsjHyNnC9H89veOepJ-69" style="edgeStyle=none;curved=1;rounded=0;orthogonalLoop=1;jettySize=auto;html=1;fontSize=12;startSize=8;endSize=8;endArrow=block;endFill=1;exitX=1;exitY=0.5;exitDx=0;exitDy=0;" edge="1" parent="1" source="1RtsjHyNnC9H89veOepJ-71" target="1RtsjHyNnC9H89veOepJ-13">
          <mxGeometry relative="1" as="geometry">
            <mxPoint x="987.7909407665506" y="512.5045296167249" as="sourcePoint" />
            <mxPoint x="1213.9999999999998" y="512.9" as="targetPoint" />
          </mxGeometry>
        </mxCell>
        <mxCell id="1RtsjHyNnC9H89veOepJ-70" style="edgeStyle=none;curved=1;rounded=0;orthogonalLoop=1;jettySize=auto;html=1;entryX=1;entryY=0.5;entryDx=0;entryDy=0;fontSize=12;endArrow=none;endFill=0;shape=link;exitX=0;exitY=0.5;exitDx=0;exitDy=0;" edge="1" parent="1" source="1RtsjHyNnC9H89veOepJ-71" target="1RtsjHyNnC9H89veOepJ-1">
          <mxGeometry relative="1" as="geometry">
            <mxPoint x="858" y="482.5" as="sourcePoint" />
          </mxGeometry>
        </mxCell>
        <mxCell id="1RtsjHyNnC9H89veOepJ-71" value="Tener" style="shape=rhombus;double=1;perimeter=rhombusPerimeter;whiteSpace=wrap;html=1;align=center;" vertex="1" parent="1">
          <mxGeometry x="876" y="452.5" width="120" height="60" as="geometry" />
        </mxCell>
        <mxCell id="1RtsjHyNnC9H89veOepJ-72" style="edgeStyle=none;curved=1;rounded=0;orthogonalLoop=1;jettySize=auto;html=1;fontSize=12;startSize=8;endSize=8;endArrow=none;endFill=0;entryX=0.5;entryY=1;entryDx=0;entryDy=0;" edge="1" parent="1" source="1RtsjHyNnC9H89veOepJ-75" target="1RtsjHyNnC9H89veOepJ-1">
          <mxGeometry relative="1" as="geometry">
            <mxPoint x="630.54" y="505.42857142857144" as="targetPoint" />
          </mxGeometry>
        </mxCell>
        <mxCell id="1RtsjHyNnC9H89veOepJ-73" style="edgeStyle=none;curved=1;rounded=0;orthogonalLoop=1;jettySize=auto;html=1;fontSize=12;startSize=8;endSize=8;endArrow=block;endFill=1;" edge="1" parent="1" source="1RtsjHyNnC9H89veOepJ-75" target="1RtsjHyNnC9H89veOepJ-50">
          <mxGeometry relative="1" as="geometry" />
        </mxCell>
        <mxCell id="1RtsjHyNnC9H89veOepJ-74" style="edgeStyle=none;curved=1;rounded=0;orthogonalLoop=1;jettySize=auto;html=1;entryX=0;entryY=0.5;entryDx=0;entryDy=0;fontSize=12;startSize=8;endSize=8;endArrow=none;endFill=0;" edge="1" parent="1" source="1RtsjHyNnC9H89veOepJ-75" target="1RtsjHyNnC9H89veOepJ-76">
          <mxGeometry relative="1" as="geometry" />
        </mxCell>
        <mxCell id="1RtsjHyNnC9H89veOepJ-75" value="Pedir" style="shape=rhombus;perimeter=rhombusPerimeter;whiteSpace=wrap;html=1;align=center;" vertex="1" parent="1">
          <mxGeometry x="569" y="613" width="120" height="60" as="geometry" />
        </mxCell>
        <mxCell id="1RtsjHyNnC9H89veOepJ-76" value="FechaDevolucion" style="ellipse;whiteSpace=wrap;html=1;align=center;" vertex="1" parent="1">
          <mxGeometry x="789" y="623" width="124" height="40" as="geometry" />
        </mxCell>
        <mxCell id="1RtsjHyNnC9H89veOepJ-77" style="edgeStyle=none;curved=1;rounded=0;orthogonalLoop=1;jettySize=auto;html=1;fontSize=12;startSize=8;endSize=8;endArrow=none;endFill=0;" edge="1" parent="1" source="1RtsjHyNnC9H89veOepJ-78" target="1RtsjHyNnC9H89veOepJ-42">
          <mxGeometry relative="1" as="geometry" />
        </mxCell>
        <mxCell id="1RtsjHyNnC9H89veOepJ-78" value="Asignar" style="shape=rhombus;perimeter=rhombusPerimeter;whiteSpace=wrap;html=1;align=center;" vertex="1" parent="1">
          <mxGeometry x="1194" y="610" width="120" height="60" as="geometry" />
        </mxCell>
        <mxCell id="1RtsjHyNnC9H89veOepJ-79" style="edgeStyle=orthogonalEdgeStyle;rounded=0;orthogonalLoop=1;jettySize=auto;html=1;entryX=1;entryY=0.5;entryDx=0;entryDy=0;fontSize=12;startSize=8;endSize=8;" edge="1" parent="1" source="1RtsjHyNnC9H89veOepJ-80" target="1RtsjHyNnC9H89veOepJ-42">
          <mxGeometry relative="1" as="geometry">
            <Array as="points">
              <mxPoint x="1405" y="825" />
            </Array>
          </mxGeometry>
        </mxCell>
        <mxCell id="1RtsjHyNnC9H89veOepJ-80" value="Pertenecer" style="shape=rhombus;perimeter=rhombusPerimeter;whiteSpace=wrap;html=1;align=center;" vertex="1" parent="1">
          <mxGeometry x="1345" y="894" width="120" height="60" as="geometry" />
        </mxCell>
        <mxCell id="1RtsjHyNnC9H89veOepJ-81" value="Pertenece" style="text;html=1;align=center;verticalAlign=middle;whiteSpace=wrap;rounded=0;fontSize=12;" vertex="1" parent="1">
          <mxGeometry x="1217" y="924" width="60" height="30" as="geometry" />
        </mxCell>
        <mxCell id="1RtsjHyNnC9H89veOepJ-82" value="Le pertenecen" style="text;html=1;align=center;verticalAlign=middle;whiteSpace=wrap;rounded=0;fontSize=12;" vertex="1" parent="1">
          <mxGeometry x="1379" y="792" width="86" height="30" as="geometry" />
        </mxCell>
        <mxCell id="1RtsjHyNnC9H89veOepJ-83" style="edgeStyle=none;curved=1;rounded=0;orthogonalLoop=1;jettySize=auto;html=1;entryX=0;entryY=0.5;entryDx=0;entryDy=0;fontSize=12;startSize=8;endSize=8;endArrow=block;endFill=1;" edge="1" parent="1" source="1RtsjHyNnC9H89veOepJ-84" target="1RtsjHyNnC9H89veOepJ-24">
          <mxGeometry relative="1" as="geometry" />
        </mxCell>
        <mxCell id="1RtsjHyNnC9H89veOepJ-84" value="Publicar" style="shape=rhombus;perimeter=rhombusPerimeter;whiteSpace=wrap;html=1;align=center;" vertex="1" parent="1">
          <mxGeometry x="1469" y="453" width="120" height="60" as="geometry" />
        </mxCell>
      </root>
    </mxGraphModel>
  </diagram>
</mxfile>
